<?xml version="1.0" encoding="utf-8"?>
<!-- Generator: Adobe Illustrator 16.0.0, SVG Export Plug-In . SVG Version: 6.00 Build 0)  -->
<!DOCTYPE svg PUBLIC "-//W3C//DTD SVG 1.1//EN" "http://www.w3.org/Graphics/SVG/1.1/DTD/svg11.dtd">
<svg version="1.1" id="Layer_1" xmlns="http://www.w3.org/2000/svg" xmlns:xlink="http://www.w3.org/1999/xlink" x="0px" y="0px"
	 width="24px" height="24px" viewBox="0 0 24 24" enable-background="new 0 0 24 24" xml:space="preserve">
<g>
	<g>
		<g>
			<path d="M13.6,15.7h-3.3c-2,0-3.7-1.6-3.7-3.7V4.6c0-2,1.7-3.7,3.7-3.7h3.3c2,0,3.7,1.6,3.7,3.7v7.4
				C17.3,14.1,15.6,15.7,13.6,15.7z M10.3,1.9c-1.5,0-2.7,1.2-2.7,2.7v7.4c0,1.5,1.2,2.7,2.7,2.7h3.3c1.5,0,2.7-1.2,2.7-2.7V4.6
				c0-1.5-1.2-2.7-2.7-2.7H10.3z"/>
		</g>
		<g>
			<g>
				<path d="M6.3,19.2c-0.3,0-0.5-0.2-0.5-0.5c0-0.3,0.2-0.5,0.5-0.5c0.8,0,1.5-0.7,1.5-1.5v-2.1c0-0.3,0.2-0.5,0.5-0.5
					c0.3,0,0.5,0.2,0.5,0.5v2.1C8.7,18.2,7.6,19.2,6.3,19.2z"/>
			</g>
			<g>
				<path d="M17.6,19.2c-1.4,0-2.5-1.1-2.5-2.5v-2.1c0-0.3,0.2-0.5,0.5-0.5c0.3,0,0.5,0.2,0.5,0.5v2.1c0,0.8,0.7,1.5,1.5,1.5
					c0.3,0,0.5,0.2,0.5,0.5C18.1,19,17.9,19.2,17.6,19.2z"/>
			</g>
		</g>
		<g>
			<path d="M22.5,23.7H1.3c-0.3,0-0.5-0.2-0.5-0.5v-4.5c0-0.3,0.2-0.5,0.5-0.5h4.8c0.3,0,0.5,0.2,0.5,0.5c0,0.3-0.2,0.5-0.5,0.5H1.8
				v3.5h20.2v-3.5h-4.3c-0.3,0-0.5-0.2-0.5-0.5c0-0.3,0.2-0.5,0.5-0.5h4.8c0.3,0,0.5,0.2,0.5,0.5v4.5C23,23.5,22.8,23.7,22.5,23.7z"
				/>
		</g>
		<g>
			<path d="M16.4,7.6c-0.9,0-4.9-1.6-4.9-3c0-0.3,0.2-0.5,0.5-0.5c0.3,0,0.5,0.2,0.5,0.5c0.2,0.6,3.3,2.1,4,2.1
				c0.3,0,0.5,0.2,0.5,0.5S16.7,7.6,16.4,7.6z"/>
		</g>
		<g>
			<path d="M7.3,7.6C7,7.6,6.8,7.4,6.8,7.1S7,6.7,7.3,6.7c0.8,0,4-1.5,4.2-2.1c0-0.3,0.2-0.5,0.5-0.5c0.3,0,0.5,0.2,0.5,0.5
				C12.4,6,8.2,7.6,7.3,7.6z"/>
		</g>
		<g>
			<g>
				<path d="M10.3,9.2H9.7c-0.3,0-0.5-0.2-0.5-0.5c0-0.3,0.2-0.5,0.5-0.5h0.6c0.3,0,0.5,0.2,0.5,0.5C10.7,8.9,10.5,9.2,10.3,9.2z"/>
			</g>
			<g>
				<path d="M14.2,9.2h-0.6c-0.3,0-0.5-0.2-0.5-0.5c0-0.3,0.2-0.5,0.5-0.5h0.6c0.3,0,0.5,0.2,0.5,0.5C14.7,8.9,14.5,9.2,14.2,9.2z"
					/>
			</g>
		</g>
		<g>
			<path d="M11.9,20.3c-1.6,0-3-0.6-4.1-1.7c-0.2-0.2-0.2-0.5,0-0.7c0.2-0.2,0.5-0.2,0.7,0c0.9,0.9,2.2,1.5,3.5,1.5
				c1.3,0,2.6-0.5,3.5-1.5c0.2-0.2,0.5-0.2,0.7,0c0.2,0.2,0.2,0.5,0,0.7C15,19.6,13.5,20.3,11.9,20.3z"/>
		</g>
	</g>
	<g>
		<g>
			<path d="M5.3,11.7c-2.1,0-3.7-1.7-3.7-3.8c0-2.1,1.7-3.7,3.7-3.7c0.3,0,0.5,0.2,0.5,0.5v6.6C5.8,11.4,5.6,11.7,5.3,11.7z
				 M4.8,5.1C3.5,5.3,2.5,6.5,2.5,7.9s1,2.6,2.3,2.8V5.1z"/>
		</g>
		<g>
			<path d="M18.6,11.7c-0.3,0-0.5-0.2-0.5-0.5V4.6c0-0.3,0.2-0.5,0.5-0.5c2.1,0,3.7,1.7,3.7,3.7C22.3,10,20.6,11.7,18.6,11.7z
				 M19.1,5.1v5.5c1.3-0.2,2.3-1.4,2.3-2.8S20.4,5.3,19.1,5.1z"/>
		</g>
	</g>
</g>
</svg>
